<?xml version="1.0" encoding="UTF-8"?>
<svg version="1.1" viewBox="0 0 1200 1200" width="1280" height="1280" xmlns="http://www.w3.org/2000/svg">
<path transform="translate(0)" d="m0 0h1200v1200h-1200z" fill="#F2F2F2"/>
<path transform="translate(653,378)" d="m0 0 5 5 12 18 11 16 13 19 11 16 13 19 11 16 13 19 3 4 4-4 4 4 2-5 15-28 10-18h1v83l-4 2h-3l-10-15-11-16-2-1-2 4-4-3-13 23-18 34-9 16-48 28-14 8-5-5-12-14-8-10-9-11-14-17-18-22-7-9-2-1-1 4-6-3-2 5-17 32-13 23-4 8-4-1-18-10-27-16-12-7 2-6 14-30 16-34 13-28h2l8 10 14 17 18 22 11 13 4-4 3 3 10-18 14-26 13-23 12-23 13-23 17-32z" fill="#303841"/>
<path transform="translate(593,291)" d="m0 0 5 5 13 19 11 16 13 19 11 16 3 4-1 6-14 26-13 23-18 34-13 23-17 32-7 12h-3l-27-33-14-17-9-11-4 4-2-4h-2l-2 6-19 40-14 30-10 22-3 1-24-14-14-8v-183l5 5 11 14 12 14 8 10 9 11 14 17 27 33 4-4 2 4h2l2-6 18-38 13-28 17-36 13-28 16-34z" fill="#303841"/>
<path transform="translate(562,246)" d="m0 0h2l10 15 13 19 3 3 3-4 3 4-1 5-2 2-2-5h-2l-3 9-14 29-13 28-16 34-14 30-16 34-4 9-5-4-36-44-14-17-18-22-14-17-3-4v-20l13-8 53-31 72-42z" fill="#303841"/>
<path transform="translate(703,285)" d="m0 0 5 2 26 15 24 14 22 13 1 1v117l-13 23-17 32-3 3-11-15-8-12-22-32-26-38-22-32-3-3-3 4-3-4 2-6 5 3 15-28 13-24 10-18z" fill="#303841"/>
<path transform="translate(619,236)" d="m0 0 5 2 28 16 27 16 19 11-1 5-14 26-13 23-12 23-5 8-4-5-10-14-17-25-11-16-13-19-1-5 18-38z" fill="#303841"/>
<path transform="translate(565,539)" d="m0 0 4 2 14 17 9 11 14 17 18 22 13 16v2l-16 9-17 10h-8l-26-15-27-16-14-8 8-16 13-24 12-22z" fill="#303841"/>
<path transform="translate(523,752)" d="m0 0h10l5 3 1-3h13v59h-13l-1-3-5 3h-10l-6-3-2-3-1-5v-37l2-7 4-3z" fill="#303841"/>
<path transform="translate(464,735)" d="m0 0h35l1 1v10h-22v21h18v10h-18v24h23v10h-37z" fill="#303841"/>
<path transform="translate(616,752)" d="m0 0h14l8 43 7-40 1-3h13l-1 10-11 52-3 7-5 5-3 1h-14v-10l9-1 3-3 1-3-6-1-12-50z" fill="#303841"/>
<path transform="translate(673,735)" d="m0 0h36v11h-22v23h18v10h-18v32h-14z" fill="#303841"/>
<path transform="translate(577,752)" d="m0 0h17l6 3 3 4v10h-13v-7l-8 1v13l13 1 6 3 3 7v13l-2 7-4 3-3 1h-18l-6-3-3-5v-9h13l1 6 8 1v-14l-16-1-5-4-1-3v-20l4-5z" fill="#303841"/>
<path transform="translate(748,518)" d="m0 0 3 1 11 16 8 12-3 3-26 15-24 14-2-1 26-48z" fill="#303841"/>
<path transform="translate(596,226)" d="m0 0h8l10 6-2 6-16 34-3 6-4-4-13-19-7-10v-3l24-14z" fill="#303841"/>
<path transform="translate(723,752)" d="m0 0h14v59h-14z" fill="#303841"/>
<path transform="translate(528,763)" d="m0 0h10l1 7v23l-1 7-8 1-2-1z" fill="#F2F2F2"/>
<path transform="translate(723,731)" d="m0 0h14v11h-14z" fill="#303841"/>
</svg>
